<?xml version="1.0" encoding="UTF-8"?>
<!DOCTYPE svg PUBLIC "-//W3C//DTD SVG 1.1//EN" "http://www.w3.org/Graphics/SVG/1.1/DTD/svg11.dtd">
<!-- Creator: CorelDRAW 2021 (64 Bit) -->
<svg xmlns="http://www.w3.org/2000/svg" xml:space="preserve" width="80px" height="69px" version="1.1" style="shape-rendering:geometricPrecision; text-rendering:geometricPrecision; image-rendering:optimizeQuality; fill-rule:evenodd; clip-rule:evenodd"
viewBox="0 0 29.09 25.1"
 xmlns:xlink="http://www.w3.org/1999/xlink"
 xmlns:xodm="http://www.corel.com/coreldraw/odm/2003">
 <defs>
  <style type="text/css">
   <![CDATA[
    .fil0 {fill:black}
    .fil1 {fill:black;fill-rule:nonzero}
   ]]>
  </style>
 </defs>
 <g id="Camada_x0020_1">
  <metadata id="CorelCorpID_0Corel-Layer"/>
  <g id="_2627536854000">
   <g>
    <path class="fil0" d="M23.5 3.6c0.01,0.08 -0.01,0.12 -0.09,0.14 -0.04,0.02 -0.07,0.04 -0.1,0.07 -0.03,0.03 -0.05,0.05 -0.08,0.07 -0.02,0.02 -0.05,0.05 -0.08,0.08 0.06,-0.01 0.1,-0.02 0.14,-0.02 0.29,-0.03 0.58,-0.03 0.88,0.01 0.15,0.02 0.31,0.06 0.46,0.11 0.16,0.06 0.31,0.14 0.43,0.25 0.06,0.06 0.12,0.13 0.14,0.22 0.03,0.1 0,0.2 -0.08,0.27 -0.09,0.09 -0.2,0.14 -0.31,0.17 -0.17,0.05 -0.34,0.07 -0.51,0.08 -0.14,0 -0.28,0.01 -0.41,0 -0.18,0 -0.36,-0.02 -0.52,-0.1 -0.2,-0.09 -0.34,-0.24 -0.43,-0.44 -0.02,-0.05 -0.04,-0.1 -0.06,-0.15 0,0 0,0.01 0,0.01 0.05,0.19 0.13,0.37 0.24,0.53 0.14,0.19 0.32,0.32 0.54,0.39 0.18,0.06 0.37,0.08 0.56,0.09 0.25,0.01 0.5,0 0.75,-0.02 0.23,-0.02 0.45,-0.06 0.66,-0.16 0.1,-0.04 0.19,-0.1 0.26,-0.19 0.11,-0.13 0.11,-0.29 0.02,-0.44 -0.08,-0.13 -0.2,-0.23 -0.33,-0.32 -0.13,-0.08 -0.28,-0.15 -0.43,-0.2 -0.18,-0.05 -0.36,-0.1 -0.55,-0.12 -0.09,-0.01 -0.18,-0.03 -0.27,-0.03 -0.18,-0.01 -0.35,-0.01 -0.53,-0.01 -0.13,0 -0.25,0.01 -0.38,0.02 0.03,0 0.06,-0.01 0.09,-0.01 0.25,-0.03 0.5,-0.05 0.75,-0.05 0.4,0 0.8,0.05 1.19,0.15 0.26,0.07 0.51,0.16 0.74,0.31 0.15,0.09 0.28,0.19 0.38,0.34 0.06,0.1 0.11,0.21 0.1,0.33 -0.01,0.09 -0.05,0.17 -0.1,0.25 -0.1,0.12 -0.24,0.2 -0.38,0.26 -0.18,0.07 -0.37,0.12 -0.57,0.14 -0.14,0.02 -0.28,0.03 -0.42,0.04 -0.21,0.01 -0.41,0.01 -0.61,0.01 -0.25,0 -0.5,-0.03 -0.74,-0.11 -0.14,-0.05 -0.27,-0.12 -0.39,-0.2 0,-0.01 -0.01,-0.01 -0.01,-0.02 -0.01,0.05 -0.01,0.09 -0.02,0.14 -0.02,0.13 -0.05,0.26 -0.11,0.38 -0.07,0.14 -0.16,0.25 -0.27,0.35 -0.14,0.12 -0.29,0.22 -0.46,0.29 -0.12,0.05 -0.24,0.09 -0.37,0.09 -0.11,0 -0.22,-0.02 -0.32,-0.09 -0.07,-0.06 -0.11,-0.14 -0.13,-0.22 -0.03,-0.12 -0.03,-0.24 -0.02,-0.36 0.03,-0.22 0.1,-0.43 0.18,-0.63 0.08,-0.21 0.17,-0.42 0.28,-0.62 0.05,-0.08 0.1,-0.17 0.15,-0.25 -0.05,0.02 -0.1,0.02 -0.14,0.06 -0.11,0.1 -0.22,0.2 -0.35,0.27 -0.05,0.04 -0.11,0.07 -0.17,0.08 -0.03,0.01 -0.07,0.01 -0.09,-0.02 -0.02,-0.03 0,-0.06 0.01,-0.09 0.04,-0.05 0.09,-0.1 0.14,-0.14 0.12,-0.09 0.24,-0.16 0.37,-0.22 0.02,-0.01 0.03,-0.02 0.04,-0.04 0.02,-0.02 0.05,-0.05 0.07,-0.08 -0.09,0.02 -0.18,0.03 -0.27,0.05 -0.26,0.04 -0.53,0.06 -0.79,0.06 -0.17,0 -0.34,-0.01 -0.5,-0.04 -0.12,-0.02 -0.24,-0.06 -0.34,-0.12 -0.11,-0.06 -0.19,-0.14 -0.22,-0.27 -0.03,-0.11 -0.01,-0.21 0.04,-0.31 0.03,-0.08 0.08,-0.15 0.13,-0.22 0.13,-0.16 0.29,-0.29 0.46,-0.39 0.15,-0.08 0.29,-0.13 0.46,-0.15 0.15,-0.02 0.3,0 0.45,0.04 0.02,0 0.05,0.01 0.08,0.02 -0.01,-0.04 -0.02,-0.08 -0.03,-0.11 -0.04,-0.19 -0.04,-0.38 -0.01,-0.57 0.04,-0.26 0.11,-0.51 0.21,-0.76 0.07,-0.17 0.14,-0.34 0.22,-0.51 0.1,-0.23 0.23,-0.45 0.39,-0.64 0.09,-0.1 0.19,-0.2 0.31,-0.26 0.22,-0.12 0.44,-0.09 0.6,0.11 0.11,0.13 0.17,0.28 0.22,0.45 0.05,0.2 0.06,0.41 0.06,0.63 0,0.2 -0.03,0.41 -0.07,0.61 -0.04,0.23 -0.1,0.45 -0.17,0.67 -0.07,0.2 -0.15,0.4 -0.24,0.59 -0.04,0.08 -0.07,0.16 -0.11,0.24 -0.01,0.01 -0.01,0.02 -0.02,0.02 0.02,-0.04 0.04,-0.07 0.05,-0.11 0.11,-0.24 0.21,-0.49 0.27,-0.75 0.08,-0.29 0.13,-0.59 0.12,-0.89 0,-0.16 -0.02,-0.31 -0.06,-0.45 -0.04,-0.13 -0.09,-0.26 -0.19,-0.36 -0.13,-0.13 -0.3,-0.15 -0.46,-0.07 -0.15,0.08 -0.26,0.2 -0.35,0.33 -0.12,0.16 -0.21,0.34 -0.29,0.52 -0.06,0.15 -0.12,0.31 -0.18,0.46 -0.07,0.2 -0.12,0.41 -0.14,0.62 -0.01,0.29 0.07,0.55 0.25,0.78 0.1,0.11 0.22,0.22 0.34,0.31 0,0 0.01,0.01 0.01,0.01 0.01,0 0.01,0 0.01,0 -0.03,-0.03 -0.06,-0.06 -0.1,-0.09 -0.08,-0.08 -0.15,-0.17 -0.21,-0.27 -0.08,-0.16 -0.1,-0.33 -0.07,-0.5 0.02,-0.19 0.08,-0.36 0.14,-0.54 0.07,-0.17 0.14,-0.34 0.24,-0.49 0.08,-0.14 0.17,-0.26 0.31,-0.35 0.05,-0.03 0.12,-0.05 0.19,-0.05 0.09,0.01 0.16,0.06 0.22,0.13 0.07,0.09 0.1,0.19 0.12,0.3 0.04,0.16 0.04,0.33 0.03,0.5 -0.03,0.25 -0.08,0.49 -0.17,0.73 -0.06,0.15 -0.13,0.3 -0.2,0.46 -0.01,0.01 -0.01,0.02 -0.02,0.04 0.01,0 0.02,-0.01 0.03,-0.01 0.06,-0.03 0.13,-0.07 0.2,-0.1 0.01,-0.01 0.02,-0.02 0.03,-0.03 0.01,-0.01 0.02,-0.03 0.03,-0.04 0.05,-0.05 0.09,-0.05 0.16,-0.02 0.03,-0.05 0.07,-0.11 0.1,-0.17 0.13,-0.19 0.23,-0.4 0.3,-0.62 0.05,-0.13 0.09,-0.27 0.12,-0.4 0.01,-0.02 0.02,-0.04 0.04,-0.03 0.02,0 0.03,0.02 0.02,0.05 -0.03,0.15 -0.07,0.31 -0.13,0.46 -0.06,0.13 -0.12,0.26 -0.19,0.38 -0.07,0.11 -0.15,0.22 -0.22,0.34 -0.01,0.01 -0.02,0.03 0,0.04 0.01,0.02 0.02,0.04 0.04,0.05 0.02,0.01 0.04,-0.01 0.06,-0.01 0.25,-0.07 0.5,-0.12 0.76,-0.13 0.16,-0.01 0.32,0 0.47,0.03 0.01,0 0.03,0 0.03,0 0.02,0.01 0.04,0.02 0.04,0.04 -0.01,0.02 -0.02,0.03 -0.04,0.02 -0.17,-0.02 -0.34,-0.03 -0.51,-0.02 -0.19,0 -0.39,0.02 -0.58,0.06 -0.07,0.02 -0.14,0.03 -0.22,0.05zm-1.59 -0.34l0 0c0,0 0,-0.01 0,-0.01 -0.04,-0.07 -0.08,-0.14 -0.12,-0.21 -0.01,-0.01 -0.01,-0.02 -0.02,-0.02 -0.19,-0.03 -0.37,-0.03 -0.55,0.04 -0.21,0.09 -0.4,0.22 -0.54,0.41 -0.07,0.08 -0.12,0.17 -0.15,0.27 -0.04,0.16 0.02,0.31 0.15,0.4 0.11,0.07 0.23,0.1 0.35,0.12 0.16,0.03 0.33,0.04 0.5,0.03 0.23,0 0.46,-0.03 0.69,-0.07 0.05,-0.01 0.08,-0.04 0.11,-0.08 -0.02,0 -0.03,0 -0.04,0.01 -0.18,0.02 -0.37,0.03 -0.55,0.02 -0.13,-0.01 -0.25,-0.03 -0.36,-0.09 -0.1,-0.05 -0.16,-0.13 -0.15,-0.24 0.01,-0.07 0.03,-0.13 0.07,-0.18 0.1,-0.17 0.25,-0.28 0.43,-0.35 0.06,-0.02 0.12,-0.04 0.18,-0.05zm0.58 1.12l0 0c-0.04,0.02 -0.08,0.02 -0.1,0.07 -0.07,0.13 -0.15,0.26 -0.21,0.39 -0.11,0.23 -0.19,0.47 -0.24,0.72 -0.02,0.11 -0.03,0.22 -0.01,0.34 0.03,0.19 0.15,0.29 0.34,0.31 0.11,0.01 0.23,-0.02 0.34,-0.06 0.15,-0.06 0.29,-0.15 0.41,-0.26 0.17,-0.15 0.29,-0.33 0.33,-0.56 0.01,-0.04 0,-0.07 -0.03,-0.1 -0.01,0 -0.01,0 -0.02,-0.01 -0.04,-0.05 -0.08,-0.1 -0.12,-0.15 -0.01,0.02 -0.02,0.04 -0.03,0.06 -0.1,0.14 -0.22,0.25 -0.38,0.33 -0.09,0.04 -0.19,0.07 -0.29,0.07 -0.12,-0.01 -0.2,-0.07 -0.24,-0.17 -0.03,-0.08 -0.02,-0.16 -0.01,-0.25 0.03,-0.2 0.1,-0.4 0.19,-0.59 0.03,-0.05 0.05,-0.09 0.07,-0.14z"/>
    <g>
     <path class="fil1" d="M21.97 4.89c-2.67,-0.66 -5.4,-1.21 -8.17,-1 -1.56,0.12 -3.51,0.49 -4.59,1.75 -0.8,0.94 -0.37,2.04 0.52,2.73 0.85,0.67 1.96,0.97 2.93,1.42 1.32,0.6 2.59,1.29 3.8,2.09 1.85,1.21 3.6,2.72 4.77,4.61 0.8,1.29 1.29,2.86 0.87,4.35 -0.43,1.53 -1.81,2.51 -3.21,3.08 -2.35,0.95 -5.11,0.99 -7.59,0.82 -0.55,-0.03 -1.1,-0.1 -1.64,-0.19 -0.31,-0.06 -0.18,-0.03 0.38,0.09 -0.16,-0.04 -0.31,-0.09 -0.46,-0.13 -0.19,-0.06 -0.37,-0.13 -0.55,-0.2 -0.67,-0.26 -1.29,-0.63 -1.82,-1.11 -0.94,-0.84 -1.68,-1.9 -1.84,-3.14 -0.24,-1.78 1.59,-2.95 3.08,-3.42 2.05,-0.64 4.35,-0.59 6.46,-0.35 -0.45,-0.05 -0.88,-0.25 -1.34,-0.3 -2.45,-0.29 -5.29,-0.35 -7.56,0.78 -0.84,0.42 -1.52,1.1 -1.71,2.04 -0.16,0.78 -0.09,1.77 0.21,2.5 0.65,1.57 2.27,2.43 3.85,2.93 2.4,0.75 4.9,0.94 7.39,0.83 3.17,-0.14 8.02,-1.24 7.84,-5.31 -0.07,-1.72 -1.1,-3.3 -2.21,-4.55 -1.67,-1.9 -3.84,-3.32 -6.06,-4.48 -1.05,-0.54 -2.13,-0.97 -3.21,-1.45 -0.55,-0.24 -1.09,-0.57 -1.5,-1.02 -0.63,-0.69 -0.64,-1.59 -0.06,-2.32 0.8,-0.98 2.23,-1.38 3.42,-1.59 2.2,-0.41 4.68,-0.25 6.84,0.29 0.31,0.07 0.61,0.14 0.92,0.21 0.03,0 0.49,0.1 0.24,0.04z"/>
    </g>
    <g>
     <path class="fil1" d="M29.05 17.01c-0.08,-0.05 -0.37,-0.14 -1.37,-0.24 -2.84,-0.17 -6.7,-0.27 -11.46,-0.3 -2.78,-0.02 -5.24,0.01 -7.31,0.09 -1.48,0.05 -2.8,0.12 -3.91,0.22 0,0 0,0 0,0 0,0 0,0 0,0 0,0.01 0,0.01 0.01,0.01 0.02,0.01 0.03,0.01 0.04,0.01 0,0 0.01,0 0.01,0 0.87,-0.07 1.83,-0.13 2.88,-0.16 2.37,-0.09 5.24,-0.08 8.55,0.02 4.75,0.14 8.65,0.31 11.59,0.5 0.1,0 0.2,0 0.29,-0.01 0.25,-0.01 0.45,-0.03 0.61,-0.07 0.06,-0.02 0.09,-0.03 0.11,-0.04 -0.01,-0.01 -0.02,-0.02 -0.04,-0.03z"/>
     <path class="fil1" d="M2.14 16.91c0.01,-0.02 0.02,-0.04 0.01,-0.07 -0.01,-0.02 -0.03,-0.04 -0.06,-0.06 -0.01,-0.01 -0.03,-0.02 -0.07,-0.01 -0.01,0 -0.01,0 -0.02,0l-1.62 0.19c-0.07,0.01 -0.08,0.03 -0.08,0.03 -0.01,0.01 -0.01,0.01 -0.01,0.02 0,0 0.01,0.01 0.02,0.01 0.02,0.01 0.05,0.01 0.08,0.01 0.02,0 0.03,0 0.04,0 0.01,0 0.01,0 0.01,0l1.64 -0.1c0.02,0 0.05,-0.01 0.06,-0.02z"/>
    </g>
    <path class="fil1" d="M2.66 13.87c-0.03,-0.01 -0.05,-0.01 -0.07,0.01 -0.23,0.15 -0.57,0.16 -1.01,0.02 -0.44,-0.14 -0.8,-0.38 -1.09,-0.7 -0.28,-0.33 -0.3,-0.69 -0.04,-1.09 0.39,-0.48 1.1,-0.97 2.13,-1.46 1.02,-0.49 2.13,-0.92 3.33,-1.29 1.19,-0.37 2.22,-0.61 3.09,-0.73 0.87,-0.12 1.34,-0.05 1.41,0.22 0.03,0.1 0.08,0.15 0.15,0.14 0.08,0 0.15,-0.04 0.22,-0.11 0.07,-0.07 0.11,-0.15 0.13,-0.22 -0.09,-0.34 -0.62,-0.46 -1.58,-0.35 -0.97,0.11 -2.1,0.37 -3.41,0.77 -1.3,0.4 -2.5,0.86 -3.6,1.4 -1.09,0.53 -1.81,1.05 -2.16,1.56 -0.25,0.46 -0.21,0.88 0.12,1.24 0.33,0.36 0.74,0.62 1.24,0.77 0.5,0.15 0.89,0.13 1.16,-0.06 0.02,-0.02 0.03,-0.04 0.02,-0.07 -0.01,-0.02 -0.02,-0.04 -0.04,-0.05zm19.05 0.89l0 0c0,-0.02 -0.02,-0.02 -0.04,-0.02 -0.02,0 -0.04,0.01 -0.06,0.04 -0.1,0.1 -0.24,0.17 -0.43,0.2 -0.2,0.03 -0.36,0.03 -0.5,-0.01 0,-0.21 -0.03,-0.36 -0.08,-0.44 -0.06,-0.08 -0.12,-0.11 -0.19,-0.1 -0.08,0.01 -0.13,0.05 -0.17,0.12 -0.03,0.07 -0.02,0.15 0.03,0.24 0.05,0.09 0.13,0.17 0.26,0.25 -0.06,0.26 -0.17,0.38 -0.34,0.36 -0.18,-0.02 -0.29,-0.16 -0.34,-0.42 -0.02,-0.22 0.03,-0.4 0.15,-0.52 0.11,-0.12 0.23,-0.18 0.37,-0.19 0.14,-0.01 0.23,0.05 0.28,0.16 0.01,0.03 0.03,0.05 0.05,0.05 0.03,0 0.05,-0.01 0.07,-0.03 0.02,-0.01 0.02,-0.04 0.02,-0.06 -0.08,-0.17 -0.23,-0.26 -0.44,-0.26 -0.22,0 -0.42,0.08 -0.6,0.23 -0.13,0.1 -0.21,0.24 -0.24,0.4 -1.08,0.4 -1.77,0.51 -2.07,0.34 -0.18,-0.07 -0.25,-0.18 -0.21,-0.32 0.04,-0.14 0.13,-0.27 0.27,-0.4 0.14,-0.13 0.29,-0.21 0.43,-0.25 0.03,-0.01 0.04,-0.01 0.04,-0.01 0,0.01 0,0.02 -0.01,0.03 -0.01,0.02 -0.02,0.03 -0.03,0.04 -0.01,0.01 -0.02,0.02 -0.03,0.02 -0.01,0.02 -0.02,0.05 -0.02,0.09 0.01,0.03 0.02,0.06 0.04,0.08 0.02,0.01 0.04,0.01 0.07,-0.01 0.08,-0.1 0.11,-0.19 0.09,-0.27 -0.02,-0.07 -0.09,-0.09 -0.23,-0.06 -0.16,0.04 -0.33,0.13 -0.51,0.25 -0.18,0.13 -0.29,0.29 -0.33,0.48 0,0 0,0 0,0.01 -0.24,0.3 -0.47,0.43 -0.67,0.38 -0.09,-0.04 -0.14,-0.12 -0.14,-0.23 -0.01,-0.11 0,-0.23 0.02,-0.36 0.02,-0.09 0.02,-0.17 0.02,-0.23 0,-0.07 -0.02,-0.1 -0.06,-0.11 -0.03,0 -0.05,0.01 -0.09,0.03 -0.03,0.03 -0.06,0.06 -0.09,0.09 -0.02,0.03 -0.05,0.05 -0.06,0.07 -0.4,0.51 -0.69,0.77 -0.86,0.79 -0.1,0.01 -0.15,-0.02 -0.16,-0.11 -0.01,-0.09 0.01,-0.19 0.08,-0.31 0.06,-0.12 0.16,-0.21 0.28,-0.28 0.13,-0.07 0.28,-0.07 0.46,-0.02 0.03,0.01 0.06,0.01 0.08,0 0.02,0 0.03,-0.02 0.03,-0.03 0,-0.02 -0.01,-0.03 -0.04,-0.04 -0.27,-0.09 -0.53,-0.08 -0.77,0.04 -0.13,0.07 -0.22,0.16 -0.28,0.27 0,0 -0.01,0 -0.01,0 -0.18,0.06 -0.34,0.1 -0.49,0.14 -0.23,0.06 -0.43,0.12 -0.61,0.18 0.11,-0.26 0.13,-0.51 0.06,-0.73 -0.08,-0.23 -0.22,-0.37 -0.43,-0.42 -0.37,-0.04 -0.68,0.16 -0.91,0.61 -0.24,0.44 -0.41,0.93 -0.52,1.47 -0.11,0.54 -0.18,0.93 -0.2,1.15 -0.02,-0.1 -0.03,-0.22 -0.05,-0.35 -0.11,-0.56 -0.18,-1.17 -0.21,-1.84 -0.02,-0.66 0.13,-1.18 0.45,-1.56 0.04,-0.05 0.06,-0.11 0.04,-0.16 -0.02,-0.06 -0.05,-0.09 -0.1,-0.11 -0.06,-0.02 -0.12,-0.01 -0.18,0.04 -0.31,0.41 -0.45,0.95 -0.45,1.6 -0.65,-0.16 -1.25,-0.01 -1.8,0.44 -0.04,0 -0.09,-0.01 -0.15,-0.03 -0.15,-0.02 -0.3,-0.07 -0.46,-0.12 -0.15,-0.05 -0.25,-0.12 -0.27,-0.21 0,0 0.01,-0.01 0.02,-0.01 0.08,-0.02 0.21,-0.07 0.39,-0.14 0.17,-0.07 0.33,-0.15 0.45,-0.25 0.13,-0.1 0.16,-0.22 0.08,-0.34 -0.11,-0.14 -0.25,-0.19 -0.44,-0.15 -0.19,0.04 -0.36,0.13 -0.52,0.28 -0.15,0.16 -0.24,0.34 -0.26,0.56 0.01,0.15 0.1,0.26 0.29,0.33 0.19,0.08 0.38,0.13 0.58,0.17 0.07,0.01 0.13,0.02 0.18,0.04 -0.43,0.78 -0.52,1.47 -0.25,2.07 0.28,0.61 0.71,0.84 1.32,0.68 0.43,-0.18 0.68,-0.47 0.77,-0.87 0.08,-0.41 -0.01,-0.81 -0.27,-1.2 -0.26,-0.38 -0.7,-0.64 -1.31,-0.76 0.48,-0.4 1.03,-0.53 1.65,-0.4 0,0 0,0 0,0 0,0.06 0.01,0.11 0.01,0.17 0.05,0.77 0.15,1.49 0.3,2.17 0.05,0.27 0.09,0.51 0.12,0.71 0,0.08 -0.01,0.28 -0.02,0.59 -0.01,0.31 -0.01,0.65 0,1.01 0.01,0.36 0.04,0.66 0.09,0.9 0.05,0.23 0.13,0.32 0.24,0.25 0.15,-0.13 0.22,-0.4 0.19,-0.8 -0.03,-0.41 -0.1,-0.9 -0.21,-1.47 -0.04,-0.26 -0.08,-0.52 -0.12,-0.8 0.01,-0.21 0.06,-0.61 0.16,-1.2 0.1,-0.59 0.25,-1.14 0.45,-1.63 0.21,-0.5 0.48,-0.71 0.82,-0.63 0.12,0.04 0.19,0.13 0.22,0.25 0.03,0.13 0.03,0.26 0,0.4 -0.02,0.14 -0.06,0.26 -0.12,0.35 -0.43,0.17 -0.74,0.31 -0.91,0.42 -0.18,0.12 -0.25,0.2 -0.22,0.25 0.02,0.06 0.12,0.09 0.28,0.07 0.16,-0.02 0.35,-0.07 0.56,-0.17 0.21,-0.1 0.4,-0.25 0.57,-0.44 0.07,-0.03 0.14,-0.05 0.22,-0.08 0.27,-0.1 0.58,-0.21 0.94,-0.32 -0.01,0.07 -0.02,0.13 -0.02,0.2 0.01,0.1 0.05,0.18 0.13,0.24 0.08,0.06 0.17,0.08 0.28,0.06 0.2,-0.01 0.52,-0.29 0.94,-0.83 0.05,-0.05 0.07,-0.06 0.08,-0.03 0,0.03 0,0.08 -0.01,0.16 -0.02,0.1 -0.02,0.2 -0.02,0.31 0,0.11 0.04,0.19 0.11,0.25 0.13,0.08 0.27,0.08 0.43,0 0.13,-0.07 0.25,-0.17 0.37,-0.31 0.01,0.2 0.11,0.32 0.29,0.38 0.13,0.04 0.29,0.05 0.46,0.04l0 0.02c-0.01,0.04 -0.01,0.09 -0.01,0.13 0,0.05 0.01,0.08 0.03,0.09 0.13,0.05 0.2,0.14 0.21,0.26 0.01,0.13 -0.03,0.23 -0.13,0.31 -0.09,0.09 -0.24,0.09 -0.45,0.03 -0.02,-0.01 -0.04,-0.01 -0.06,-0.01 -0.02,0 -0.03,0.01 -0.04,0.02 -0.01,0.01 0,0.01 0.01,0.02 0.27,0.08 0.47,0.08 0.62,-0.02 0.15,-0.09 0.22,-0.21 0.22,-0.35 0,-0.14 -0.1,-0.24 -0.29,-0.3l0.01 -0.2c0.07,-0.01 0.14,-0.02 0.21,-0.03 0.31,-0.06 0.61,-0.13 0.89,-0.23 0.23,-0.08 0.41,-0.14 0.52,-0.18 0,0.04 0,0.08 0,0.13 0.04,0.24 0.14,0.42 0.31,0.52 0.16,0.11 0.33,0.13 0.51,0.07 0.17,-0.07 0.28,-0.24 0.34,-0.51 0.2,0.04 0.39,0.03 0.58,0 0.19,-0.04 0.35,-0.12 0.46,-0.26 0.02,-0.02 0.02,-0.04 0.01,-0.06zm-13.04 -0.35l0 0c0.1,-0.1 0.22,-0.18 0.35,-0.22 0.12,-0.05 0.22,-0.05 0.3,0.01 0.03,0.03 0,0.07 -0.06,0.12 -0.07,0.06 -0.16,0.12 -0.27,0.18 -0.11,0.06 -0.22,0.11 -0.32,0.15 -0.1,0.05 -0.17,0.07 -0.2,0.07 0.02,-0.1 0.09,-0.21 0.2,-0.31zm1.83 1.71l0 0c0.24,0.38 0.35,0.75 0.31,1.13 -0.04,0.37 -0.24,0.63 -0.59,0.77 -0.35,0.09 -0.64,0 -0.87,-0.27 -0.24,-0.26 -0.36,-0.62 -0.38,-1.07 -0.02,-0.44 0.12,-0.89 0.43,-1.32 0.49,0.13 0.85,0.39 1.1,0.76zm1.37 3.72l0 0c0.04,0.39 0.03,0.61 -0.03,0.66 -0.07,-0.07 -0.11,-0.25 -0.13,-0.55 -0.02,-0.29 -0.03,-0.6 -0.03,-0.91 0.01,-0.31 0.01,-0.53 0.01,-0.66 0.09,0.58 0.15,1.07 0.18,1.46zm0.96 -4.3l0 0c-0.12,0.06 -0.23,0.11 -0.32,0.13 -0.09,0.03 -0.15,0.03 -0.16,0.02 -0.01,-0.01 0.04,-0.05 0.16,-0.11 0.11,-0.07 0.32,-0.15 0.63,-0.27 -0.09,0.1 -0.19,0.17 -0.31,0.23zm7.62 -0.77l0 0c-0.01,-0.05 -0.02,-0.1 -0.01,-0.13 0,-0.04 0.01,-0.06 0.02,-0.07 0.02,-0.01 0.03,0.02 0.04,0.07 0.02,0.05 0.03,0.13 0.04,0.26 -0.05,-0.04 -0.08,-0.09 -0.09,-0.13zm-12.78 -0.07l0 0c-0.02,0 -0.05,0.01 -0.07,0.03 -0.37,0.52 -0.89,1.03 -1.55,1.55 -0.66,0.51 -1.32,0.77 -1.98,0.78 -0.08,-0.08 -0.11,-0.29 -0.1,-0.65 0.02,-0.36 0.05,-0.76 0.11,-1.22 0.06,-0.46 0.12,-0.87 0.18,-1.24 0.06,-0.37 0.1,-0.6 0.12,-0.69 0.66,-0.14 1.29,-0.43 1.91,-0.86 0.03,-0.02 0.04,-0.05 0.04,-0.07 0.01,-0.02 0,-0.04 -0.01,-0.06 -0.01,-0.01 -0.03,-0.01 -0.06,0.01 -0.6,0.4 -1.21,0.65 -1.83,0.77 0.19,-0.84 0.42,-1.53 0.71,-2.08 0.01,-0.04 0,-0.06 -0.04,-0.08 -0.03,-0.02 -0.07,-0.03 -0.12,-0.04 -0.04,0 -0.08,0.01 -0.1,0.04 -0.29,0.59 -0.54,1.33 -0.73,2.22 -0.18,0.05 -0.35,0.08 -0.5,0.11 -0.14,0.02 -0.31,0.04 -0.49,0.06 -0.05,0.01 -0.07,0.03 -0.05,0.06 0.01,0.02 0.04,0.04 0.09,0.04 0.17,0.01 0.32,0.01 0.45,0 0.14,-0.01 0.29,-0.03 0.46,-0.07 -0.02,0.1 -0.06,0.33 -0.11,0.71 -0.04,0.38 -0.09,0.8 -0.12,1.26 -0.04,0.47 -0.05,0.89 -0.04,1.25 0.01,0.37 0.07,0.58 0.16,0.65 0.8,0.07 1.56,-0.18 2.28,-0.75 0.72,-0.57 1.2,-1.11 1.44,-1.61 0.01,-0.03 0.02,-0.05 0,-0.08 -0.01,-0.02 -0.03,-0.03 -0.05,-0.04z"/>
    <path class="fil1" d="M16.78 20.75l0.6 0 0 -3 -0.6 0 0 3zm-1.8 -1.15l0 0 -0.94 -1.85 -0.59 0 1.53 3.07 1.54 -3.07 -0.58 0 -0.96 1.85zm5.66 -1.06l0 0c-0.24,-0.53 -0.66,-0.79 -1.26,-0.79l-1.67 0 0 0.58 1.74 0c0.17,0 0.32,0.07 0.46,0.19 0.14,0.15 0.2,0.3 0.2,0.46l0 0.06c0,0.03 0,0.07 -0.01,0.13 -0.06,0.18 -0.15,0.31 -0.28,0.39 -0.1,0.08 -0.25,0.12 -0.47,0.12l-1.65 0 0 1.07 0.61 0 0 -0.47 1.09 -0.02c0.11,0 0.2,0 0.29,-0.02 0.24,-0.05 0.45,-0.15 0.62,-0.3 0.27,-0.26 0.41,-0.57 0.41,-0.92 0,-0.17 -0.03,-0.33 -0.08,-0.48z"/>
   </g>
  </g>
 </g>
</svg>
